<?xml version="1.0" encoding="utf-8"?>
<!-- Generator: Adobe Illustrator 22.0.1, SVG Export Plug-In . SVG Version: 6.00 Build 0)  -->
<svg version="1.1" id="Capa_1" xmlns="http://www.w3.org/2000/svg" xmlns:xlink="http://www.w3.org/1999/xlink" x="0px" y="0px"
	 viewBox="0 0 512 512" style="enable-background:new 0 0 512 512;" xml:space="preserve">
<style type="text/css">
	.st0{fill:#FF0000;stroke:#FF0000;stroke-width:0.4474;stroke-miterlimit:10;}
	.st1{fill:#FF0000;stroke:#FF0000;stroke-width:10.7387;stroke-miterlimit:10;}
</style>
<g id="rojo">
	<g>
		<path class="st0" d="M59.2,337.6h20.6v68.6H66.5v-46.4c0-1.3,0-3.2,0-5.6c0-2.4,0-4.3,0-5.5l-13,57.6H39.6l-12.9-57.6
			c0,1.3,0,3.2,0,5.5c0,2.4,0,4.3,0,5.6v46.4H13.5v-68.6h20.9l12.5,53.9L59.2,337.6z"/>
		<path class="st0" d="M143.8,349.8h-36.3v14.6h33.3v11.9h-33.3v17.6h38v12.3h-52v-68.6h50.3V349.8z"/>
		<path class="st0" d="M202.8,359c-1.1-4.7-3.8-8-8-9.8c-2.4-1-5-1.5-7.9-1.5c-5.5,0-10.1,2.1-13.6,6.3c-3.5,4.2-5.3,10.4-5.3,18.8
			c0,8.4,1.9,14.4,5.8,17.9c3.8,3.5,8.2,5.2,13.1,5.2c4.8,0,8.8-1.4,11.8-4.1c3.1-2.8,5-6.4,5.7-10.8h-15.8v-11.5h28.6v36.8h-9.5
			l-1.4-8.5c-2.8,3.2-5.2,5.5-7.4,6.8c-3.8,2.3-8.5,3.5-14,3.5c-9.1,0-16.6-3.1-22.3-9.4c-6-6.3-9.1-15-9.1-26c0-11.1,3-20,9.2-26.7
			c6.1-6.7,14.2-10.1,24.3-10.1c8.7,0,15.7,2.2,21,6.6c5.3,4.4,8.3,9.9,9.1,16.6L202.8,359L202.8,359z"/>
		<path class="st0" d="M250.4,337.6h16.2l24.3,68.6h-15.5l-4.5-14.1h-25.3l-4.7,14.1h-15L250.4,337.6z M249.4,380.3H267l-8.7-27
			L249.4,380.3z"/>
		<path class="st0" d="M350.8,345c2.1,2.9,3.1,6.4,3.1,10.5c0,4.2-1.1,7.6-3.2,10.1c-1.2,1.4-2.9,2.7-5.2,3.9c3.5,1.3,6.1,3.3,7.9,6
			c1.8,2.8,2.7,6.1,2.7,10.1c0,4.1-1,7.7-3,10.9c-1.3,2.1-2.9,3.9-4.9,5.4c-2.2,1.7-4.8,2.8-7.7,3.4c-3,0.6-6.2,0.9-9.7,0.9h-30.9
			v-68.6H333C341.4,337.7,347.3,340.2,350.8,345z M313.5,349.6v15.1h16.7c3,0,5.4-0.6,7.2-1.7c1.9-1.1,2.8-3.1,2.8-6
			c0-3.2-1.2-5.3-3.7-6.3c-2.1-0.7-4.8-1.1-8.1-1.1H313.5z M313.5,376v18.3h16.6c3,0,5.3-0.4,6.9-1.2c3-1.5,4.5-4.3,4.5-8.5
			c0-3.6-1.5-6-4.4-7.3c-1.6-0.8-3.9-1.1-6.8-1.2L313.5,376L313.5,376z"/>
		<path class="st0" d="M388.1,337.6h16.2l24.3,68.6H413l-4.5-14.1h-25.3l-4.7,14.1h-15L388.1,337.6z M387.1,380.3h17.6l-8.7-27
			L387.1,380.3z"/>
		<path class="st0" d="M483.4,359c-1.1-4.7-3.8-8-8-9.8c-2.4-1-5-1.5-7.9-1.5c-5.5,0-10.1,2.1-13.6,6.3c-3.5,4.2-5.3,10.4-5.3,18.8
			c0,8.4,1.9,14.4,5.8,17.9c3.8,3.5,8.2,5.2,13.1,5.2c4.8,0,8.8-1.4,11.8-4.1c3.1-2.8,5-6.4,5.7-10.8h-15.9v-11.5h28.6v36.8h-9.5
			l-1.4-8.5c-2.8,3.2-5.2,5.5-7.4,6.8c-3.8,2.3-8.5,3.5-14,3.5c-9.1,0-16.6-3.1-22.3-9.4c-6-6.3-9.1-15-9.1-26c0-11.1,3-20,9.2-26.7
			c6.1-6.7,14.2-10.1,24.3-10.1c8.7,0,15.7,2.2,21,6.6c5.3,4.4,8.3,9.9,9.1,16.6L483.4,359L483.4,359z"/>
	</g>
	<g>
		<path class="st0" d="M28.5,420v3.8h-6.4v17.5h-4.5v-17.5h-6.4V420H28.5z"/>
		<path class="st0" d="M31,441.2V420h4.4v8.1h8.3V420h4.4v21.3h-4.4v-9.5h-8.3v9.5H31z"/>
		<path class="st0" d="M68.1,423.8H56.9v4.5h10.3v3.7H56.9v5.5h11.8v3.8H52.5V420h15.6V423.8z"/>
		<path class="st0" d="M96,423.8H84.7v4.5H95v3.7H84.7v5.5h11.8v3.8H80.4V420H96V423.8z"/>
		<path class="st0" d="M100,420h15.2v3.7h-10.7v4.9h9.4v3.7h-9.4v8.9H100V420z"/>
		<path class="st0" d="M118,420h15.2v3.7h-10.7v4.9h9.4v3.7h-9.4v8.9H118V420z"/>
		<path class="st0" d="M140.1,441.2h-4.4V420h4.4V441.2z"/>
		<path class="st0" d="M146.3,422.2c1.7-1.7,3.9-2.6,6.5-2.6c3.5,0,6.1,1.2,7.7,3.5c0.9,1.3,1.4,2.6,1.5,4h-4.4
			c-0.3-1-0.6-1.8-1.1-2.3c-0.8-0.9-2-1.4-3.5-1.4s-2.8,0.7-3.8,2c-0.9,1.3-1.4,3.1-1.4,5.5s0.5,4.2,1.4,5.4c1,1.2,2.2,1.8,3.7,1.8
			c1.5,0,2.7-0.5,3.5-1.5c0.4-0.5,0.8-1.4,1.1-2.5h4.4c-0.4,2.3-1.3,4.2-2.9,5.6c-1.6,1.4-3.6,2.2-6,2.2c-3,0-5.4-1-7.1-3
			c-1.7-2-2.6-4.7-2.6-8.1C143.3,427.1,144.3,424.2,146.3,422.2z"/>
		<path class="st0" d="M169.6,441.2h-4.4V420h4.4V441.2z"/>
		<path class="st0" d="M189.5,423.8h-11.2v4.5h10.3v3.7h-10.3v5.5H190v3.8h-16.1V420h15.6V423.8z"/>
		<path class="st0" d="M193.4,420h4.7l8.5,14.8V420h4.1v21.3h-4.4l-8.6-15.1v15.1h-4.1L193.4,420L193.4,420z"/>
		<path class="st0" d="M230.2,420v3.8h-6.4v17.5h-4.5v-17.5H213V420H230.2z"/>
		<path class="st0" d="M256.9,422.3c0.7,0.9,1,2,1,3.3c0,1.3-0.3,2.3-1,3.1c-0.4,0.4-0.9,0.9-1.6,1.2c1.1,0.4,1.9,1,2.5,1.9
			c0.5,0.9,0.9,1.9,0.9,3.1c0,1.3-0.3,2.4-0.9,3.4c-0.4,0.7-0.9,1.2-1.5,1.7c-0.7,0.5-1.5,0.9-2.4,1.1s-1.9,0.3-3,0.3h-9.6V420h10.3
			C254,420,255.8,420.8,256.9,422.3z M245.3,423.7v4.7h5.1c0.9,0,1.7-0.2,2.2-0.5c0.6-0.4,0.9-1,0.9-1.9c0-1-0.4-1.7-1.2-2
			c-0.7-0.2-1.5-0.3-2.5-0.3L245.3,423.7L245.3,423.7z M245.3,431.9v5.7h5.1c0.9,0,1.7-0.1,2.1-0.4c0.9-0.4,1.4-1.3,1.4-2.6
			c0-1.1-0.4-1.9-1.3-2.3c-0.5-0.2-1.2-0.4-2.1-0.4L245.3,431.9L245.3,431.9z"/>
		<path class="st0" d="M262.4,420h4.5v13.1c0,1.5,0.2,2.5,0.5,3.2c0.5,1.2,1.7,1.8,3.5,1.8s3-0.6,3.5-1.8c0.4-0.7,0.5-1.7,0.5-3.2
			V420h4.5v13.1c0,2.2-0.4,4-1,5.3c-1.3,2.3-3.8,3.4-7.5,3.4c-3.7,0-6.2-1.2-7.5-3.4c-0.7-1.3-1-3-1-5.3L262.4,420L262.4,420z"/>
		<path class="st0" d="M283.7,420h4.4v17.5h10.6v3.8h-15V420z"/>
		<path class="st0" d="M301.8,420h4.4v8.8l8.2-8.8h5.7l-8.7,8.7l9.2,12.5h-5.7l-6.5-9.3l-2.1,2.1v7.1h-4.4V420z"/>
		<path class="st0" d="M333.3,422.2c1.7-1.7,3.9-2.6,6.5-2.6c3.5,0,6.1,1.2,7.7,3.5c0.9,1.3,1.4,2.6,1.5,4h-4.4
			c-0.3-1-0.6-1.8-1.1-2.3c-0.8-0.9-2-1.4-3.5-1.4c-1.6,0-2.8,0.7-3.8,2c-0.9,1.3-1.4,3.1-1.4,5.5s0.5,4.2,1.4,5.4
			c0.9,1.2,2.2,1.8,3.7,1.8c1.5,0,2.7-0.5,3.5-1.5c0.4-0.5,0.8-1.4,1.1-2.5h4.4c-0.4,2.3-1.3,4.2-2.9,5.6c-1.6,1.4-3.6,2.2-6,2.2
			c-3,0-5.4-1-7.1-3c-1.7-2-2.6-4.7-2.6-8.1C330.3,427.1,331.3,424.2,333.3,422.2z"/>
		<path class="st0" d="M369,439.4c-1.6,1.7-3.9,2.5-7,2.5c-3,0-5.4-0.8-7-2.5c-2.1-2-3.2-5-3.2-8.8c0-3.9,1.1-6.8,3.2-8.8
			c1.6-1.7,3.9-2.5,7-2.5c3,0,5.4,0.8,7,2.5c2.1,2,3.2,4.9,3.2,8.8C372.2,434.4,371.1,437.3,369,439.4z M366.2,436.1
			c1-1.3,1.6-3.1,1.6-5.5c0-2.4-0.5-4.2-1.6-5.5c-1-1.3-2.4-2-4.2-2s-3.2,0.6-4.2,1.9c-1,1.3-1.6,3.1-1.6,5.5s0.5,4.3,1.6,5.5
			s2.5,2,4.2,2S365.2,437.4,366.2,436.1z"/>
		<path class="st0" d="M375.5,420h4.7l8.5,14.8V420h4.1v21.3h-4.4l-8.6-15.1v15.1h-4.1L375.5,420L375.5,420z"/>
		<path class="st0" d="M412.3,420v3.8H406v17.5h-4.5v-17.5h-6.4V420H412.3z"/>
		<path class="st0" d="M418.8,420h5l7.5,21.3h-4.8l-1.4-4.4h-7.8l-1.4,4.4h-4.7L418.8,420z M418.5,433.2h5.5l-2.7-8.4L418.5,433.2z"
			/>
		<path class="st0" d="M438.1,441.2h-4.4V420h4.4V441.2z"/>
		<path class="st0" d="M442.2,420h4.7l8.5,14.8V420h4.1v21.3H455l-8.6-15.1v15.1h-4.1L442.2,420L442.2,420z"/>
		<path class="st0" d="M479.3,423.8h-11.2v4.5h10.3v3.7h-10.3v5.5h11.8v3.8h-16.1V420h15.6L479.3,423.8L479.3,423.8z"/>
		<path class="st0" d="M496.9,420.6c0.8,0.4,1.4,0.9,2,1.5c0.4,0.5,0.8,1.1,1.1,1.8c0.3,0.7,0.4,1.4,0.4,2.2c0,1-0.3,2-0.8,3
			c-0.5,1-1.3,1.7-2.5,2.1c1,0.4,1.7,0.9,2.1,1.7c0.4,0.7,0.6,1.8,0.6,3.3v1.4c0,1,0,1.6,0.1,2c0.1,0.5,0.4,0.9,0.8,1.2v0.5h-4.9
			c-0.1-0.5-0.2-0.9-0.3-1.1c-0.1-0.6-0.2-1.2-0.2-1.8l0-2c0-1.3-0.3-2.2-0.7-2.7c-0.4-0.4-1.3-0.7-2.6-0.7h-4.3v8.3h-4.3V420h10.2
			C495,420,496.1,420.2,496.9,420.6z M487.8,423.7v5.7h4.8c0.9,0,1.7-0.1,2.1-0.4c0.9-0.4,1.3-1.2,1.3-2.4c0-1.3-0.4-2.1-1.2-2.6
			c-0.4-0.3-1.2-0.4-2.1-0.4L487.8,423.7L487.8,423.7z"/>
	</g>
	<g>
		<polygon class="st1" points="409.9,70.5 253.8,144 104.4,70.5 104.4,106.8 257.1,180.3 409.9,107.6 		"/>
		<polygon class="st1" points="409.9,136.5 253.8,210 104.4,136.5 104.4,172.9 257.1,246.3 409.9,173.7 		"/>
		<polygon class="st1" points="409.9,200.1 253.8,273.5 104.4,200.1 104.4,236.4 257.1,309.9 409.9,237.3 		"/>
		<polygon class="st1" points="103.5,265.4 147.1,286.6 191.1,308.2 147.3,308.2 103.5,308.2 103.5,279.6 		"/>
		<polygon class="st1" points="409.8,265.4 366.2,286.6 322.2,308.2 366,308.2 409.9,308.2 409.8,279.6 		"/>
	</g>
</g>
</svg>
