<?xml version="1.0" encoding="utf-8"?>
<!-- Generator: Adobe Illustrator 22.0.1, SVG Export Plug-In . SVG Version: 6.00 Build 0)  -->
<svg version="1.1" xmlns="http://www.w3.org/2000/svg" xmlns:xlink="http://www.w3.org/1999/xlink" x="0px" y="0px"
	 viewBox="0 0 1920 1080" style="enable-background:new 0 0 1920 1080;" xml:space="preserve">
<style type="text/css">
	.st0{display:none;}
	.st1{display:inline;}
	.st2{stroke:#000000;stroke-miterlimit:10;}
	.st3{display:inline;fill:none;}
	.st4{stroke:#000000;stroke-width:24;stroke-miterlimit:10;}
	.st5{fill:#FFFFFF;stroke:#FFFFFF;stroke-miterlimit:10;}
	.st6{fill:#FFFFFF;stroke:#FFFFFF;stroke-width:24;stroke-miterlimit:10;}
	.st7{fill:#FF0000;stroke:#FF0000;stroke-miterlimit:10;}
	.st8{fill:#FF0000;stroke:#FF0000;stroke-width:24;stroke-miterlimit:10;}
</style>
<g id="negro" class="st0">
	<g class="st1">
		<path class="st2" d="M522.9,710H569v153.3h-29.8V759.6c0-3,0-7.2,0.1-12.5c0.1-5.4,0.1-9.5,0.1-12.4l-29.1,128.7h-31.1
			l-28.8-128.7c0,2.9,0,7.1,0.1,12.4c0.1,5.4,0.1,9.6,0.1,12.5v103.7h-29.8V710h46.6l27.9,120.5L522.9,710z"/>
		<path class="st2" d="M712,737.2h-81.1v32.6h74.5v26.6h-74.5v39.4h84.9v27.6H599.6V710H712V737.2z"/>
		<path class="st2" d="M843.8,757.9c-2.4-10.5-8.4-17.8-17.8-21.9c-5.3-2.3-11.1-3.4-17.6-3.4c-12.3,0-22.5,4.7-30.4,14
			c-7.9,9.3-11.9,23.3-11.9,42c0,18.8,4.3,32.1,12.9,40c8.6,7.8,18.4,11.7,29.3,11.7c10.7,0,19.6-3.1,26.4-9.2
			c6.9-6.2,11.1-14.2,12.7-24.2H812v-25.6h63.9v82.3h-21.2l-3.2-19.1c-6.2,7.2-11.7,12.4-16.6,15.3c-8.5,5.2-18.9,7.8-31.2,7.8
			c-20.3,0-37-7-49.9-21.1c-13.5-14.1-20.3-33.5-20.3-58c0-24.8,6.8-44.7,20.5-59.7c13.7-15,31.7-22.5,54.2-22.5
			c19.5,0,35.1,4.9,47,14.8c11.8,9.9,18.6,22.2,20.3,37H843.8z"/>
		<path class="st2" d="M950.2,710h36.2l54.2,153.3H1006l-10.1-31.5h-56.5L929,863.3h-33.5L950.2,710z M948.1,805.4h39.3L968,745.1
			L948.1,805.4z"/>
		<path class="st2" d="M1174.6,726.4c4.7,6.5,7,14.3,7,23.4c0,9.4-2.4,16.9-7.1,22.6c-2.6,3.2-6.5,6.1-11.7,8.7
			c7.8,2.8,13.7,7.4,17.7,13.5c4,6.2,6,13.7,6,22.5c0,9.1-2.3,17.2-6.8,24.4c-2.9,4.8-6.5,8.8-10.9,12.1c-4.9,3.7-10.7,6.3-17.3,7.7
			c-6.7,1.4-13.9,2.1-21.7,2.1h-69.1V710h74.1C1153.5,710.3,1166.8,715.8,1174.6,726.4z M1091.3,736.7v33.8h37.3
			c6.7,0,12.1-1.3,16.2-3.8c4.2-2.5,6.2-7,6.2-13.5c0-7.1-2.7-11.9-8.2-14.1c-4.7-1.6-10.8-2.4-18.1-2.4H1091.3z M1091.3,795.8v40.9
			h37.2c6.6,0,11.8-0.9,15.5-2.7c6.7-3.3,10.1-9.7,10.1-19.1c0-8-3.3-13.5-9.8-16.4c-3.6-1.7-8.7-2.5-15.3-2.6H1091.3z"/>
		<path class="st2" d="M1257.9,710h36.2l54.2,153.3h-34.7l-10.1-31.5h-56.5l-10.4,31.5h-33.5L1257.9,710z M1255.8,805.4h39.3
			l-19.4-60.3L1255.8,805.4z"/>
		<path class="st2" d="M1470.9,757.9c-2.4-10.5-8.4-17.8-17.8-21.9c-5.3-2.3-11.1-3.4-17.6-3.4c-12.3,0-22.5,4.7-30.4,14
			c-7.9,9.3-11.9,23.3-11.9,42c0,18.8,4.3,32.1,12.9,40c8.6,7.8,18.4,11.7,29.3,11.7c10.7,0,19.6-3.1,26.4-9.2
			c6.9-6.2,11.1-14.2,12.7-24.2h-35.5v-25.6h63.9v82.3h-21.2l-3.2-19.1c-6.2,7.2-11.7,12.4-16.6,15.3c-8.5,5.2-18.9,7.8-31.2,7.8
			c-20.3,0-37-7-49.9-21.1c-13.5-14.1-20.3-33.5-20.3-58c0-24.8,6.8-44.7,20.5-59.7c13.7-15,31.7-22.5,54.2-22.5
			c19.5,0,35.1,4.9,47,14.8c11.8,9.9,18.6,22.2,20.3,37H1470.9z"/>
	</g>
	<rect x="130.4" y="142" class="st3" width="0" height="3.6"/>
	<g>
	</g>
	<g class="st1">
		<path class="st2" d="M454.2,894.1v8.4h-14.2v39.1h-10v-39.1h-14.3v-8.4H454.2z"/>
		<path class="st2" d="M459.9,941.6v-47.5h9.9v18.1h18.5v-18.1h9.9v47.5h-9.9v-21.2h-18.5v21.2H459.9z"/>
		<path class="st2" d="M542.8,902.6h-25.1v10.1h23.1v8.2h-23.1v12.2h26.3v8.5h-36v-47.5h34.8V902.6z"/>
		<path class="st2" d="M605.1,902.6H580v10.1H603v8.2H580v12.2h26.3v8.5h-36v-47.5h34.8V902.6z"/>
		<path class="st2" d="M614,894.2h33.9v8.3h-24v10.9h21v8.2h-21v19.9H614V894.2z"/>
		<path class="st2" d="M654.3,894.2h33.9v8.3h-24v10.9h21v8.2h-21v19.9h-9.9V894.2z"/>
		<path class="st2" d="M703.7,941.6h-9.9v-47.5h9.9V941.6z"/>
		<path class="st2" d="M717.5,899.1c3.8-3.9,8.7-5.9,14.6-5.9c7.9,0,13.7,2.6,17.3,7.9c2,2.9,3.1,5.9,3.3,8.9h-9.9
			c-0.6-2.3-1.4-4-2.4-5.2c-1.8-2.1-4.4-3.1-7.9-3.1c-3.5,0-6.3,1.5-8.4,4.4c-2,2.9-3.1,7-3.1,12.4s1.1,9.3,3.2,12
			c2.2,2.7,4.9,4,8.2,4c3.4,0,6-1.1,7.8-3.4c1-1.2,1.8-3.1,2.5-5.5h9.9c-0.9,5.2-3,9.4-6.5,12.6c-3.5,3.2-8,4.9-13.4,4.9
			c-6.8,0-12.1-2.2-15.9-6.6c-3.9-4.4-5.8-10.4-5.8-18.1C710.9,910,713.1,903.6,717.5,899.1z"/>
		<path class="st2" d="M769.7,941.6h-9.9v-47.5h9.9V941.6z"/>
		<path class="st2" d="M814.1,902.6H789v10.1H812v8.2H789v12.2h26.3v8.5h-36v-47.5h34.8V902.6z"/>
		<path class="st2" d="M822.8,894.1h10.4l18.9,33.1v-33.1h9.2v47.5h-9.9l-19.3-33.7v33.7h-9.2V894.1z"/>
		<path class="st2" d="M905.2,894.1v8.4H891v39.1h-10v-39.1h-14.3v-8.4H905.2z"/>
		<path class="st2" d="M964.7,899.2c1.5,2,2.2,4.4,2.2,7.3c0,2.9-0.7,5.2-2.2,7c-0.8,1-2,1.9-3.6,2.7c2.4,0.9,4.3,2.3,5.5,4.2
			c1.2,1.9,1.9,4.2,1.9,7c0,2.8-0.7,5.3-2.1,7.6c-0.9,1.5-2,2.7-3.4,3.7c-1.5,1.2-3.3,2-5.4,2.4s-4.3,0.6-6.7,0.6h-21.4v-47.5h23
			C958.2,894.2,962.3,895.9,964.7,899.2z M938.9,902.4v10.5h11.5c2.1,0,3.7-0.4,5-1.2c1.3-0.8,1.9-2.2,1.9-4.2
			c0-2.2-0.9-3.7-2.6-4.4c-1.5-0.5-3.3-0.7-5.6-0.7H938.9z M938.9,920.7v12.7h11.5c2.1,0,3.7-0.3,4.8-0.8c2.1-1,3.1-3,3.1-5.9
			c0-2.5-1-4.2-3-5.1c-1.1-0.5-2.7-0.8-4.7-0.8H938.9z"/>
		<path class="st2" d="M977,894.1h10.1v29.2c0,3.3,0.4,5.6,1.2,7.1c1.2,2.7,3.8,4,7.8,4c4,0,6.6-1.3,7.8-4c0.8-1.5,1.2-3.9,1.2-7.1
			v-29.2h10.1v29.2c0,5-0.8,9-2.3,11.8c-2.9,5.2-8.5,7.7-16.7,7.7s-13.8-2.6-16.7-7.7c-1.6-2.8-2.3-6.7-2.3-11.8V894.1z"/>
		<path class="st2" d="M1024.6,894.1h9.9v39h23.7v8.5h-33.6V894.1z"/>
		<path class="st2" d="M1065.1,894.1h9.8v19.6l18.4-19.6h12.8l-19.5,19.5l20.5,28h-12.8l-14.6-20.7l-4.8,4.8v15.9h-9.8V894.1z"/>
		<path class="st2" d="M1135.5,899.1c3.8-3.9,8.7-5.9,14.6-5.9c7.9,0,13.7,2.6,17.3,7.9c2,2.9,3.1,5.9,3.3,8.9h-9.9
			c-0.6-2.3-1.4-4-2.4-5.2c-1.8-2.1-4.4-3.1-7.9-3.1c-3.5,0-6.3,1.5-8.4,4.4c-2,2.9-3.1,7-3.1,12.4s1.1,9.3,3.2,12s4.9,4,8.2,4
			c3.4,0,6-1.1,7.8-3.4c1-1.2,1.8-3.1,2.5-5.5h9.9c-0.8,5.2-3,9.4-6.5,12.6s-8,4.9-13.4,4.9c-6.8,0-12.1-2.2-15.9-6.6
			c-3.9-4.4-5.8-10.4-5.8-18.1C1128.9,910,1131.1,903.6,1135.5,899.1z"/>
		<path class="st2" d="M1215.2,937.4c-3.6,3.7-8.8,5.5-15.6,5.5c-6.8,0-12-1.8-15.6-5.5c-4.8-4.5-7.2-11.1-7.2-19.6
			c0-8.7,2.4-15.2,7.2-19.6c3.6-3.7,8.8-5.5,15.6-5.5c6.8,0,12,1.8,15.6,5.5c4.8,4.4,7.2,10.9,7.2,19.6
			C1222.4,926.4,1220,932.9,1215.2,937.4z M1209,930.2c2.3-2.9,3.5-7,3.5-12.4c0-5.3-1.2-9.4-3.5-12.4c-2.3-2.9-5.4-4.4-9.4-4.4
			s-7.1,1.4-9.4,4.3c-2.3,2.9-3.5,7-3.5,12.4s1.2,9.5,3.5,12.4c2.3,2.9,5.5,4.4,9.4,4.4S1206.7,933.1,1209,930.2z"/>
		<path class="st2" d="M1229.8,894.1h10.4l18.9,33.1v-33.1h9.2v47.5h-9.9l-19.3-33.7v33.7h-9.2V894.1z"/>
		<path class="st2" d="M1312.1,894.1v8.4h-14.2v39.1h-10v-39.1h-14.3v-8.4H1312.1z"/>
		<path class="st2" d="M1326.6,894.1h11.2l16.8,47.5h-10.8l-3.1-9.8h-17.5l-3.2,9.8h-10.4L1326.6,894.1z M1326,923.7h12.2l-6-18.7
			L1326,923.7z"/>
		<path class="st2" d="M1369.8,941.6h-9.9v-47.5h9.9V941.6z"/>
		<path class="st2" d="M1378.9,894.1h10.4l18.9,33.1v-33.1h9.2v47.5h-9.9l-19.3-33.7v33.7h-9.2V894.1z"/>
		<path class="st2" d="M1461.9,902.6h-25.1v10.1h23.1v8.2h-23.1v12.2h26.3v8.5h-36v-47.5h34.8V902.6z"/>
		<path class="st2" d="M1501.2,895.4c1.8,0.8,3.2,1.9,4.4,3.3c1,1.2,1.8,2.5,2.4,4c0.6,1.5,0.9,3.1,0.9,5c0,2.3-0.6,4.5-1.7,6.7
			c-1.1,2.2-3,3.7-5.6,4.6c2.2,0.9,3.7,2.1,4.7,3.8c0.9,1.6,1.4,4.1,1.4,7.4v3.2c0,2.2,0.1,3.6,0.3,4.4c0.3,1.2,0.9,2.1,1.8,2.7v1.2
			h-11c-0.3-1.1-0.5-1.9-0.6-2.5c-0.3-1.3-0.4-2.7-0.4-4.1l-0.1-4.4c0-3-0.6-5-1.6-6.1c-1-1-2.9-1.5-5.7-1.5h-9.7v18.6h-9.7v-47.5
			h22.7C1496.9,894.2,1499.4,894.6,1501.2,895.4z M1480.7,902.4v12.8h10.7c2.1,0,3.7-0.3,4.8-0.8c1.9-0.9,2.8-2.7,2.8-5.3
			c0-2.9-0.9-4.8-2.7-5.8c-1-0.6-2.6-0.8-4.6-0.8H1480.7z"/>
	</g>
	<g class="st1">
		<polygon class="st4" points="1306.6,113 957.9,277.2 624,113 624,194.2 965.3,358.4 1306.6,196 		"/>
		<polygon class="st4" points="1306.6,260.6 957.9,424.8 624,260.6 624,341.8 965.3,505.9 1306.6,343.6 		"/>
		<polygon class="st4" points="1306.6,402.6 957.9,566.8 624,402.6 624,483.8 965.3,648 1306.6,485.7 		"/>
		<polygon class="st4" points="622,548.5 719.4,596 817.7,644.3 719.8,644.3 621.9,644.3 622,580.4 		"/>
		<polygon class="st4" points="1306.4,548.5 1209,596 1110.7,644.3 1208.6,644.3 1306.6,644.3 1306.4,580.4 		"/>
	</g>
</g>
<g id="blanco" class="st0">
	<g class="st1">
		<path class="st5" d="M522.9,710H569v153.3h-29.8V759.6c0-3,0-7.2,0.1-12.5c0.1-5.4,0.1-9.5,0.1-12.4l-29.1,128.7h-31.1
			l-28.8-128.7c0,2.9,0,7.1,0.1,12.4c0.1,5.4,0.1,9.6,0.1,12.5v103.7h-29.8V710h46.6l27.9,120.5L522.9,710z"/>
		<path class="st5" d="M712,737.2h-81.1v32.6h74.5v26.6h-74.5v39.4h84.9v27.6H599.6V710H712V737.2z"/>
		<path class="st5" d="M843.8,757.9c-2.4-10.5-8.4-17.8-17.8-21.9c-5.3-2.3-11.1-3.4-17.6-3.4c-12.3,0-22.5,4.7-30.4,14
			c-7.9,9.3-11.9,23.3-11.9,42c0,18.8,4.3,32.1,12.9,40c8.6,7.8,18.4,11.7,29.3,11.7c10.7,0,19.6-3.1,26.4-9.2
			c6.9-6.2,11.1-14.2,12.7-24.2H812v-25.6h63.9v82.3h-21.2l-3.2-19.1c-6.2,7.2-11.7,12.4-16.6,15.3c-8.5,5.2-18.9,7.8-31.2,7.8
			c-20.3,0-37-7-49.9-21.1c-13.5-14.1-20.3-33.5-20.3-58c0-24.8,6.8-44.7,20.5-59.7c13.7-15,31.7-22.5,54.2-22.5
			c19.5,0,35.1,4.9,47,14.8c11.8,9.9,18.6,22.2,20.3,37H843.8z"/>
		<path class="st5" d="M950.2,710h36.2l54.2,153.3H1006l-10.1-31.5h-56.5L929,863.3h-33.5L950.2,710z M948.1,805.4h39.3L968,745.1
			L948.1,805.4z"/>
		<path class="st5" d="M1174.6,726.4c4.7,6.5,7,14.3,7,23.4c0,9.4-2.4,16.9-7.1,22.6c-2.6,3.2-6.5,6.1-11.7,8.7
			c7.8,2.8,13.7,7.4,17.7,13.5c4,6.2,6,13.7,6,22.5c0,9.1-2.3,17.2-6.8,24.4c-2.9,4.8-6.5,8.8-10.9,12.1c-4.9,3.7-10.7,6.3-17.3,7.7
			c-6.7,1.4-13.9,2.1-21.7,2.1h-69.1V710h74.1C1153.5,710.3,1166.8,715.8,1174.6,726.4z M1091.3,736.7v33.8h37.3
			c6.7,0,12.1-1.3,16.2-3.8c4.2-2.5,6.2-7,6.2-13.5c0-7.1-2.7-11.9-8.2-14.1c-4.7-1.6-10.8-2.4-18.1-2.4H1091.3z M1091.3,795.8v40.9
			h37.2c6.6,0,11.8-0.9,15.5-2.7c6.7-3.3,10.1-9.7,10.1-19.1c0-8-3.3-13.5-9.8-16.4c-3.6-1.7-8.7-2.5-15.3-2.6H1091.3z"/>
		<path class="st5" d="M1257.9,710h36.2l54.2,153.3h-34.7l-10.1-31.5h-56.5l-10.4,31.5h-33.5L1257.9,710z M1255.8,805.4h39.3
			l-19.4-60.3L1255.8,805.4z"/>
		<path class="st5" d="M1470.9,757.9c-2.4-10.5-8.4-17.8-17.8-21.9c-5.3-2.3-11.1-3.4-17.6-3.4c-12.3,0-22.5,4.7-30.4,14
			c-7.9,9.3-11.9,23.3-11.9,42c0,18.8,4.3,32.1,12.9,40c8.6,7.8,18.4,11.7,29.3,11.7c10.7,0,19.6-3.1,26.4-9.2
			c6.9-6.2,11.1-14.2,12.7-24.2h-35.5v-25.6h63.9v82.3h-21.2l-3.2-19.1c-6.2,7.2-11.7,12.4-16.6,15.3c-8.5,5.2-18.9,7.8-31.2,7.8
			c-20.3,0-37-7-49.9-21.1c-13.5-14.1-20.3-33.5-20.3-58c0-24.8,6.8-44.7,20.5-59.7c13.7-15,31.7-22.5,54.2-22.5
			c19.5,0,35.1,4.9,47,14.8c11.8,9.9,18.6,22.2,20.3,37H1470.9z"/>
	</g>
	<g class="st1">
		<path class="st5" d="M454.2,894.1v8.4h-14.2v39.1h-10v-39.1h-14.3v-8.4H454.2z"/>
		<path class="st5" d="M459.9,941.6v-47.5h9.9v18.1h18.5v-18.1h9.9v47.5h-9.9v-21.2h-18.5v21.2H459.9z"/>
		<path class="st5" d="M542.8,902.6h-25.1v10.1h23.1v8.2h-23.1v12.2h26.3v8.5h-36v-47.5h34.8V902.6z"/>
		<path class="st5" d="M605.1,902.6H580v10.1H603v8.2H580v12.2h26.3v8.5h-36v-47.5h34.8V902.6z"/>
		<path class="st5" d="M614,894.2h33.9v8.3h-24v10.9h21v8.2h-21v19.9H614V894.2z"/>
		<path class="st5" d="M654.3,894.2h33.9v8.3h-24v10.9h21v8.2h-21v19.9h-9.9V894.2z"/>
		<path class="st5" d="M703.7,941.6h-9.9v-47.5h9.9V941.6z"/>
		<path class="st5" d="M717.5,899.1c3.8-3.9,8.7-5.9,14.6-5.9c7.9,0,13.7,2.6,17.3,7.9c2,2.9,3.1,5.9,3.3,8.9h-9.9
			c-0.6-2.3-1.4-4-2.4-5.2c-1.8-2.1-4.4-3.1-7.9-3.1c-3.5,0-6.3,1.5-8.4,4.4c-2,2.9-3.1,7-3.1,12.4s1.1,9.3,3.2,12
			c2.2,2.7,4.9,4,8.2,4c3.4,0,6-1.1,7.8-3.4c1-1.2,1.8-3.1,2.5-5.5h9.9c-0.9,5.2-3,9.4-6.5,12.6c-3.5,3.2-8,4.9-13.4,4.9
			c-6.8,0-12.1-2.2-15.9-6.6c-3.9-4.4-5.8-10.4-5.8-18.1C710.9,910,713.1,903.6,717.5,899.1z"/>
		<path class="st5" d="M769.7,941.6h-9.9v-47.5h9.9V941.6z"/>
		<path class="st5" d="M814.1,902.6H789v10.1H812v8.2H789v12.2h26.3v8.5h-36v-47.5h34.8V902.6z"/>
		<path class="st5" d="M822.8,894.1h10.4l18.9,33.1v-33.1h9.2v47.5h-9.9l-19.3-33.7v33.7h-9.2V894.1z"/>
		<path class="st5" d="M905.2,894.1v8.4H891v39.1h-10v-39.1h-14.3v-8.4H905.2z"/>
		<path class="st5" d="M964.7,899.2c1.5,2,2.2,4.4,2.2,7.3c0,2.9-0.7,5.2-2.2,7c-0.8,1-2,1.9-3.6,2.7c2.4,0.9,4.3,2.3,5.5,4.2
			c1.2,1.9,1.9,4.2,1.9,7c0,2.8-0.7,5.3-2.1,7.6c-0.9,1.5-2,2.7-3.4,3.7c-1.5,1.2-3.3,2-5.4,2.4s-4.3,0.6-6.7,0.6h-21.4v-47.5h23
			C958.2,894.2,962.3,895.9,964.7,899.2z M938.9,902.4v10.5h11.5c2.1,0,3.7-0.4,5-1.2c1.3-0.8,1.9-2.2,1.9-4.2
			c0-2.2-0.9-3.7-2.6-4.4c-1.5-0.5-3.3-0.7-5.6-0.7H938.9z M938.9,920.7v12.7h11.5c2.1,0,3.7-0.3,4.8-0.8c2.1-1,3.1-3,3.1-5.9
			c0-2.5-1-4.2-3-5.1c-1.1-0.5-2.7-0.8-4.7-0.8H938.9z"/>
		<path class="st5" d="M977,894.1h10.1v29.2c0,3.3,0.4,5.6,1.2,7.1c1.2,2.7,3.8,4,7.8,4c4,0,6.6-1.3,7.8-4c0.8-1.5,1.2-3.9,1.2-7.1
			v-29.2h10.1v29.2c0,5-0.8,9-2.3,11.8c-2.9,5.2-8.5,7.7-16.7,7.7s-13.8-2.6-16.7-7.7c-1.6-2.8-2.3-6.7-2.3-11.8V894.1z"/>
		<path class="st5" d="M1024.6,894.1h9.9v39h23.7v8.5h-33.6V894.1z"/>
		<path class="st5" d="M1065.1,894.1h9.8v19.6l18.4-19.6h12.8l-19.5,19.5l20.5,28h-12.8l-14.6-20.7l-4.8,4.8v15.9h-9.8V894.1z"/>
		<path class="st5" d="M1135.5,899.1c3.8-3.9,8.7-5.9,14.6-5.9c7.9,0,13.7,2.6,17.3,7.9c2,2.9,3.1,5.9,3.3,8.9h-9.9
			c-0.6-2.3-1.4-4-2.4-5.2c-1.8-2.1-4.4-3.1-7.9-3.1c-3.5,0-6.3,1.5-8.4,4.4c-2,2.9-3.1,7-3.1,12.4s1.1,9.3,3.2,12s4.9,4,8.2,4
			c3.4,0,6-1.1,7.8-3.4c1-1.2,1.8-3.1,2.5-5.5h9.9c-0.8,5.2-3,9.4-6.5,12.6s-8,4.9-13.4,4.9c-6.8,0-12.1-2.2-15.9-6.6
			c-3.9-4.4-5.8-10.4-5.8-18.1C1128.9,910,1131.1,903.6,1135.5,899.1z"/>
		<path class="st5" d="M1215.2,937.4c-3.6,3.7-8.8,5.5-15.6,5.5c-6.8,0-12-1.8-15.6-5.5c-4.8-4.5-7.2-11.1-7.2-19.6
			c0-8.7,2.4-15.2,7.2-19.6c3.6-3.7,8.8-5.5,15.6-5.5c6.8,0,12,1.8,15.6,5.5c4.8,4.4,7.2,10.9,7.2,19.6
			C1222.4,926.4,1220,932.9,1215.2,937.4z M1209,930.2c2.3-2.9,3.5-7,3.5-12.4c0-5.3-1.2-9.4-3.5-12.4c-2.3-2.9-5.4-4.4-9.4-4.4
			s-7.1,1.4-9.4,4.3c-2.3,2.9-3.5,7-3.5,12.4s1.2,9.5,3.5,12.4c2.3,2.9,5.5,4.4,9.4,4.4S1206.7,933.1,1209,930.2z"/>
		<path class="st5" d="M1229.8,894.1h10.4l18.9,33.1v-33.1h9.2v47.5h-9.9l-19.3-33.7v33.7h-9.2V894.1z"/>
		<path class="st5" d="M1312.1,894.1v8.4h-14.2v39.1h-10v-39.1h-14.3v-8.4H1312.1z"/>
		<path class="st5" d="M1326.6,894.1h11.2l16.8,47.5h-10.8l-3.1-9.8h-17.5l-3.2,9.8h-10.4L1326.6,894.1z M1326,923.7h12.2l-6-18.7
			L1326,923.7z"/>
		<path class="st5" d="M1369.8,941.6h-9.9v-47.5h9.9V941.6z"/>
		<path class="st5" d="M1378.9,894.1h10.4l18.9,33.1v-33.1h9.2v47.5h-9.9l-19.3-33.7v33.7h-9.2V894.1z"/>
		<path class="st5" d="M1461.9,902.6h-25.1v10.1h23.1v8.2h-23.1v12.2h26.3v8.5h-36v-47.5h34.8V902.6z"/>
		<path class="st5" d="M1501.2,895.4c1.8,0.8,3.2,1.9,4.4,3.3c1,1.2,1.8,2.5,2.4,4c0.6,1.5,0.9,3.1,0.9,5c0,2.3-0.6,4.5-1.7,6.7
			c-1.1,2.2-3,3.7-5.6,4.6c2.2,0.9,3.7,2.1,4.7,3.8c0.9,1.6,1.4,4.1,1.4,7.4v3.2c0,2.2,0.1,3.6,0.3,4.4c0.3,1.2,0.9,2.1,1.8,2.7v1.2
			h-11c-0.3-1.1-0.5-1.9-0.6-2.5c-0.3-1.3-0.4-2.7-0.4-4.1l-0.1-4.4c0-3-0.6-5-1.6-6.1c-1-1-2.9-1.5-5.7-1.5h-9.7v18.6h-9.7v-47.5
			h22.7C1496.9,894.2,1499.4,894.6,1501.2,895.4z M1480.7,902.4v12.8h10.7c2.1,0,3.7-0.3,4.8-0.8c1.9-0.9,2.8-2.7,2.8-5.3
			c0-2.9-0.9-4.8-2.7-5.8c-1-0.6-2.6-0.8-4.6-0.8H1480.7z"/>
	</g>
	<g class="st1">
		<polygon class="st6" points="1306.6,113 957.9,277.2 624,113 624,194.2 965.3,358.4 1306.6,196 		"/>
		<polygon class="st6" points="1306.6,260.6 957.9,424.8 624,260.6 624,341.8 965.3,505.9 1306.6,343.6 		"/>
		<polygon class="st6" points="1306.6,402.6 957.9,566.8 624,402.6 624,483.8 965.3,648 1306.6,485.7 		"/>
		<polygon class="st6" points="622,548.5 719.4,596 817.7,644.3 719.8,644.3 621.9,644.3 622,580.4 		"/>
		<polygon class="st6" points="1306.4,548.5 1209,596 1110.7,644.3 1208.6,644.3 1306.6,644.3 1306.4,580.4 		"/>
	</g>
</g>
<g id="rojo">
	<g>
		<path class="st7" d="M522.9,710H569v153.3h-29.8V759.6c0-3,0-7.2,0.1-12.5c0.1-5.4,0.1-9.5,0.1-12.4l-29.1,128.7h-31.1
			l-28.8-128.7c0,2.9,0,7.1,0.1,12.4c0.1,5.4,0.1,9.6,0.1,12.5v103.7h-29.8V710h46.6l27.9,120.5L522.9,710z"/>
		<path class="st7" d="M712,737.2h-81.1v32.6h74.5v26.6h-74.5v39.4h84.9v27.6H599.6V710H712V737.2z"/>
		<path class="st7" d="M843.8,757.9c-2.4-10.5-8.4-17.8-17.8-21.9c-5.3-2.3-11.1-3.4-17.6-3.4c-12.3,0-22.5,4.7-30.4,14
			c-7.9,9.3-11.9,23.3-11.9,42c0,18.8,4.3,32.1,12.9,40c8.6,7.8,18.4,11.7,29.3,11.7c10.7,0,19.6-3.1,26.4-9.2
			c6.9-6.2,11.1-14.2,12.7-24.2H812v-25.6h63.9v82.3h-21.2l-3.2-19.1c-6.2,7.2-11.7,12.4-16.6,15.3c-8.5,5.2-18.9,7.8-31.2,7.8
			c-20.3,0-37-7-49.9-21.1c-13.5-14.1-20.3-33.5-20.3-58c0-24.8,6.8-44.7,20.5-59.7c13.7-15,31.7-22.5,54.2-22.5
			c19.5,0,35.1,4.9,47,14.8c11.8,9.9,18.6,22.2,20.3,37H843.8z"/>
		<path class="st7" d="M950.2,710h36.2l54.2,153.3H1006l-10.1-31.5h-56.5L929,863.3h-33.5L950.2,710z M948.1,805.4h39.3L968,745.1
			L948.1,805.4z"/>
		<path class="st7" d="M1174.6,726.4c4.7,6.5,7,14.3,7,23.4c0,9.4-2.4,16.9-7.1,22.6c-2.6,3.2-6.5,6.1-11.7,8.7
			c7.8,2.8,13.7,7.4,17.7,13.5c4,6.2,6,13.7,6,22.5c0,9.1-2.3,17.2-6.8,24.4c-2.9,4.8-6.5,8.8-10.9,12.1c-4.9,3.7-10.7,6.3-17.3,7.7
			c-6.7,1.4-13.9,2.1-21.7,2.1h-69.1V710h74.1C1153.5,710.3,1166.8,715.8,1174.6,726.4z M1091.3,736.7v33.8h37.3
			c6.7,0,12.1-1.3,16.2-3.8c4.2-2.5,6.2-7,6.2-13.5c0-7.1-2.7-11.9-8.2-14.1c-4.7-1.6-10.8-2.4-18.1-2.4H1091.3z M1091.3,795.8v40.9
			h37.2c6.6,0,11.8-0.9,15.5-2.7c6.7-3.3,10.1-9.7,10.1-19.1c0-8-3.3-13.5-9.8-16.4c-3.6-1.7-8.7-2.5-15.3-2.6H1091.3z"/>
		<path class="st7" d="M1257.9,710h36.2l54.2,153.3h-34.7l-10.1-31.5h-56.5l-10.4,31.5h-33.5L1257.9,710z M1255.8,805.4h39.3
			l-19.4-60.3L1255.8,805.4z"/>
		<path class="st7" d="M1470.9,757.9c-2.4-10.5-8.4-17.8-17.8-21.9c-5.3-2.3-11.1-3.4-17.6-3.4c-12.3,0-22.5,4.7-30.4,14
			c-7.9,9.3-11.9,23.3-11.9,42c0,18.8,4.3,32.1,12.9,40c8.6,7.8,18.4,11.7,29.3,11.7c10.7,0,19.6-3.1,26.4-9.2
			c6.9-6.2,11.1-14.2,12.7-24.2h-35.5v-25.6h63.9v82.3h-21.2l-3.2-19.1c-6.2,7.2-11.7,12.4-16.6,15.3c-8.5,5.2-18.9,7.8-31.2,7.8
			c-20.3,0-37-7-49.9-21.1c-13.5-14.1-20.3-33.5-20.3-58c0-24.8,6.8-44.7,20.5-59.7c13.7-15,31.7-22.5,54.2-22.5
			c19.5,0,35.1,4.9,47,14.8c11.8,9.9,18.6,22.2,20.3,37H1470.9z"/>
	</g>
	<g>
		<path class="st7" d="M454.2,894.1v8.4h-14.2v39.1h-10v-39.1h-14.3v-8.4H454.2z"/>
		<path class="st7" d="M459.9,941.6v-47.5h9.9v18.1h18.5v-18.1h9.9v47.5h-9.9v-21.2h-18.5v21.2H459.9z"/>
		<path class="st7" d="M542.8,902.6h-25.1v10.1h23.1v8.2h-23.1v12.2h26.3v8.5h-36v-47.5h34.8V902.6z"/>
		<path class="st7" d="M605.1,902.6H580v10.1H603v8.2H580v12.2h26.3v8.5h-36v-47.5h34.8V902.6z"/>
		<path class="st7" d="M614,894.2h33.9v8.3h-24v10.9h21v8.2h-21v19.9H614V894.2z"/>
		<path class="st7" d="M654.3,894.2h33.9v8.3h-24v10.9h21v8.2h-21v19.9h-9.9V894.2z"/>
		<path class="st7" d="M703.7,941.6h-9.9v-47.5h9.9V941.6z"/>
		<path class="st7" d="M717.5,899.1c3.8-3.9,8.7-5.9,14.6-5.9c7.9,0,13.7,2.6,17.3,7.9c2,2.9,3.1,5.9,3.3,8.9h-9.9
			c-0.6-2.3-1.4-4-2.4-5.2c-1.8-2.1-4.4-3.1-7.9-3.1c-3.5,0-6.3,1.5-8.4,4.4c-2,2.9-3.1,7-3.1,12.4s1.1,9.3,3.2,12
			c2.2,2.7,4.9,4,8.2,4c3.4,0,6-1.1,7.8-3.4c1-1.2,1.8-3.1,2.5-5.5h9.9c-0.9,5.2-3,9.4-6.5,12.6c-3.5,3.2-8,4.9-13.4,4.9
			c-6.8,0-12.1-2.2-15.9-6.6c-3.9-4.4-5.8-10.4-5.8-18.1C710.9,910,713.1,903.6,717.5,899.1z"/>
		<path class="st7" d="M769.7,941.6h-9.9v-47.5h9.9V941.6z"/>
		<path class="st7" d="M814.1,902.6H789v10.1H812v8.2H789v12.2h26.3v8.5h-36v-47.5h34.8V902.6z"/>
		<path class="st7" d="M822.8,894.1h10.4l18.9,33.1v-33.1h9.2v47.5h-9.9l-19.3-33.7v33.7h-9.2V894.1z"/>
		<path class="st7" d="M905.2,894.1v8.4H891v39.1h-10v-39.1h-14.3v-8.4H905.2z"/>
		<path class="st7" d="M964.7,899.2c1.5,2,2.2,4.4,2.2,7.3c0,2.9-0.7,5.2-2.2,7c-0.8,1-2,1.9-3.6,2.7c2.4,0.9,4.3,2.3,5.5,4.2
			c1.2,1.9,1.9,4.2,1.9,7c0,2.8-0.7,5.3-2.1,7.6c-0.9,1.5-2,2.7-3.4,3.7c-1.5,1.2-3.3,2-5.4,2.4s-4.3,0.6-6.7,0.6h-21.4v-47.5h23
			C958.2,894.2,962.3,895.9,964.7,899.2z M938.9,902.4v10.5h11.5c2.1,0,3.7-0.4,5-1.2c1.3-0.8,1.9-2.2,1.9-4.2
			c0-2.2-0.9-3.7-2.6-4.4c-1.5-0.5-3.3-0.7-5.6-0.7H938.9z M938.9,920.7v12.7h11.5c2.1,0,3.7-0.3,4.8-0.8c2.1-1,3.1-3,3.1-5.9
			c0-2.5-1-4.2-3-5.1c-1.1-0.5-2.7-0.8-4.7-0.8H938.9z"/>
		<path class="st7" d="M977,894.1h10.1v29.2c0,3.3,0.4,5.6,1.2,7.1c1.2,2.7,3.8,4,7.8,4c4,0,6.6-1.3,7.8-4c0.8-1.5,1.2-3.9,1.2-7.1
			v-29.2h10.1v29.2c0,5-0.8,9-2.3,11.8c-2.9,5.2-8.5,7.7-16.7,7.7s-13.8-2.6-16.7-7.7c-1.6-2.8-2.3-6.7-2.3-11.8V894.1z"/>
		<path class="st7" d="M1024.6,894.1h9.9v39h23.7v8.5h-33.6V894.1z"/>
		<path class="st7" d="M1065.1,894.1h9.8v19.6l18.4-19.6h12.8l-19.5,19.5l20.5,28h-12.8l-14.6-20.7l-4.8,4.8v15.9h-9.8V894.1z"/>
		<path class="st7" d="M1135.5,899.1c3.8-3.9,8.7-5.9,14.6-5.9c7.9,0,13.7,2.6,17.3,7.9c2,2.9,3.1,5.9,3.3,8.9h-9.9
			c-0.6-2.3-1.4-4-2.4-5.2c-1.8-2.1-4.4-3.1-7.9-3.1c-3.5,0-6.3,1.5-8.4,4.4c-2,2.9-3.1,7-3.1,12.4s1.1,9.3,3.2,12s4.9,4,8.2,4
			c3.4,0,6-1.1,7.8-3.4c1-1.2,1.8-3.1,2.5-5.5h9.9c-0.8,5.2-3,9.4-6.5,12.6s-8,4.9-13.4,4.9c-6.8,0-12.1-2.2-15.9-6.6
			c-3.9-4.4-5.8-10.4-5.8-18.1C1128.9,910,1131.1,903.6,1135.5,899.1z"/>
		<path class="st7" d="M1215.2,937.4c-3.6,3.7-8.8,5.5-15.6,5.5c-6.8,0-12-1.8-15.6-5.5c-4.8-4.5-7.2-11.1-7.2-19.6
			c0-8.7,2.4-15.2,7.2-19.6c3.6-3.7,8.8-5.5,15.6-5.5c6.8,0,12,1.8,15.6,5.5c4.8,4.4,7.2,10.9,7.2,19.6
			C1222.4,926.4,1220,932.9,1215.2,937.4z M1209,930.2c2.3-2.9,3.5-7,3.5-12.4c0-5.3-1.2-9.4-3.5-12.4c-2.3-2.9-5.4-4.4-9.4-4.4
			s-7.1,1.4-9.4,4.3c-2.3,2.9-3.5,7-3.5,12.4s1.2,9.5,3.5,12.4c2.3,2.9,5.5,4.4,9.4,4.4S1206.7,933.1,1209,930.2z"/>
		<path class="st7" d="M1229.8,894.1h10.4l18.9,33.1v-33.1h9.2v47.5h-9.9l-19.3-33.7v33.7h-9.2V894.1z"/>
		<path class="st7" d="M1312.1,894.1v8.4h-14.2v39.1h-10v-39.1h-14.3v-8.4H1312.1z"/>
		<path class="st7" d="M1326.6,894.1h11.2l16.8,47.5h-10.8l-3.1-9.8h-17.5l-3.2,9.8h-10.4L1326.6,894.1z M1326,923.7h12.2l-6-18.7
			L1326,923.7z"/>
		<path class="st7" d="M1369.8,941.6h-9.9v-47.5h9.9V941.6z"/>
		<path class="st7" d="M1378.9,894.1h10.4l18.9,33.1v-33.1h9.2v47.5h-9.9l-19.3-33.7v33.7h-9.2V894.1z"/>
		<path class="st7" d="M1461.9,902.6h-25.1v10.1h23.1v8.2h-23.1v12.2h26.3v8.5h-36v-47.5h34.8V902.6z"/>
		<path class="st7" d="M1501.2,895.4c1.8,0.8,3.2,1.9,4.4,3.3c1,1.2,1.8,2.5,2.4,4c0.6,1.5,0.9,3.1,0.9,5c0,2.3-0.6,4.5-1.7,6.7
			c-1.1,2.2-3,3.7-5.6,4.6c2.2,0.9,3.7,2.1,4.7,3.8c0.9,1.6,1.4,4.1,1.4,7.4v3.2c0,2.2,0.1,3.6,0.3,4.4c0.3,1.2,0.9,2.1,1.8,2.7v1.2
			h-11c-0.3-1.1-0.5-1.9-0.6-2.5c-0.3-1.3-0.4-2.7-0.4-4.1l-0.1-4.4c0-3-0.6-5-1.6-6.1c-1-1-2.9-1.5-5.7-1.5h-9.7v18.6h-9.7v-47.5
			h22.7C1496.9,894.2,1499.4,894.6,1501.2,895.4z M1480.7,902.4v12.8h10.7c2.1,0,3.7-0.3,4.8-0.8c1.9-0.9,2.8-2.7,2.8-5.3
			c0-2.9-0.9-4.8-2.7-5.8c-1-0.6-2.6-0.8-4.6-0.8H1480.7z"/>
	</g>
	<g>
		<polygon class="st8" points="1306.6,113 957.9,277.2 624,113 624,194.2 965.3,358.4 1306.6,196 		"/>
		<polygon class="st8" points="1306.6,260.6 957.9,424.8 624,260.6 624,341.8 965.3,505.9 1306.6,343.6 		"/>
		<polygon class="st8" points="1306.6,402.6 957.9,566.8 624,402.6 624,483.8 965.3,648 1306.6,485.7 		"/>
		<polygon class="st8" points="622,548.5 719.4,596 817.7,644.3 719.8,644.3 621.9,644.3 622,580.4 		"/>
		<polygon class="st8" points="1306.4,548.5 1209,596 1110.7,644.3 1208.6,644.3 1306.6,644.3 1306.4,580.4 		"/>
	</g>
</g>
</svg>
